<svg xmlns="http://www.w3.org/2000/svg" width="24" height="24" viewBox="0 0 24 24">
  <g id="Group_167" data-name="Group 167" transform="translate(-232 -36)">
    <rect id="Rectangle_74" data-name="Rectangle 74" width="24" height="24" transform="translate(232 36)" fill="none"/>
    <path id="Path_23" data-name="Path 23" d="M314.059-79.216l-9.62,5.755a.487.487,0,0,0-.153.692l3.384,4.979a.487.487,0,0,1,0,.542l-4.759,7.2a.487.487,0,0,0,.672.677l9.258-6.013a.485.485,0,0,0,.143-.674l-3.245-4.99a.487.487,0,0,1,.012-.549l4.95-6.918A.487.487,0,0,0,314.059-79.216Z" transform="translate(-64.816 117.288)" fill="#e137c9"/>
  </g>
</svg>
