<svg id="Layer_1" data-name="Layer 1" xmlns="http://www.w3.org/2000/svg" viewBox="0 0 40 40"><defs><style>.cls-1{fill:#6cb526;}.cls-2{fill:#19592f;}.cls-3{fill:none;}</style></defs><g id="Group_86" data-name="Group 86"><path id="Path_11" data-name="Path 11" class="cls-1" d="M20,.75,3.27,10.59V29.71L20,39.25l16.76-9.54V10.59Z"/><path id="Path_12" data-name="Path 12" class="cls-2" d="M14.19,16.26c-.47-1.11-1.34-2.76.23-4.12a3,3,0,0,1,4-.13c.22-1.3.24-3.55,2.64-3.49s3.74,1.79,4.63,3.49a8.57,8.57,0,0,1,.6,4.25s2.13,1.27,1.54,2.85-4.19,2.57-6.23,1.49c0,2.31,0,8.8,1.27,11-1-.56-3.53-.07-4.06.23a53,53,0,0,0,.7-9.16c-.21-1.72-1.47-3.06-2.55-2s-4.36.8-5.17,0a2.76,2.76,0,0,1,2.43-4.34Z"/></g><rect class="cls-3" width="40" height="40"/></svg>