<svg id="Layer_1" data-name="Layer 1" xmlns="http://www.w3.org/2000/svg" viewBox="0 0 110 24"><defs><style>.cls-1{isolation:isolate;}.cls-2{fill:#fee001;}.cls-3{fill:#f29102;}.cls-4{fill:#966c3b;}.cls-5{fill:#523b28;}</style></defs><g id="_2" data-name=" 2" class="cls-1"><g class="cls-1"><path d="M87.09,17.81H79.3V16.26L83,12.34a9.22,9.22,0,0,0,1.12-1.45,2.33,2.33,0,0,0,.36-1.17,1.77,1.77,0,0,0-.38-1.19A1.39,1.39,0,0,0,83,8.1a1.47,1.47,0,0,0-1.2.52A2.07,2.07,0,0,0,81.34,10H79.07a3.74,3.74,0,0,1,.5-1.9A3.5,3.5,0,0,1,81,6.76a4.31,4.31,0,0,1,2-.49,4,4,0,0,1,2.73.85,3,3,0,0,1,1,2.38,3.85,3.85,0,0,1-.44,1.72,9.62,9.62,0,0,1-1.5,2L82.2,16h4.89Z"/></g></g><g id="Rectangle_19" data-name="Rectangle 19"><rect class="cls-2" x="90" y="2.04" width="20" height="20" rx="4"/><path class="cls-3" d="M106,22H94a4,4,0,0,1-4-4V6a4,4,0,0,1,4-4h12a4,4,0,0,1,4,4V18A4,4,0,0,1,106,22ZM94,3a3,3,0,0,0-3,3V18a3,3,0,0,0,3,3h12a3,3,0,0,0,3-3V6a3,3,0,0,0-3-3Z"/></g><path id="Path_15" data-name="Path 15" class="cls-3" d="M101.84,15.22a2.18,2.18,0,0,1-1.5.46,1.84,1.84,0,0,1-1.63-.79,3.33,3.33,0,0,1-.45-1.44h1.56V12.32H98.19v-.56h1.63V10.63H98.26a3.21,3.21,0,0,1,.49-1.44,1.83,1.83,0,0,1,1.62-.78,2.08,2.08,0,0,1,1.48.46,2.18,2.18,0,0,1,.57,1.48h2.17a4,4,0,0,0-1.28-2.74,4.78,4.78,0,0,0-5.25-.36A4,4,0,0,0,96.53,9a5.64,5.64,0,0,0-.46,1.6h-.66v1.13H96v.57h-.59v1.13h.66a4.92,4.92,0,0,0,1.09,2.63,3.94,3.94,0,0,0,3.18,1.36,4.35,4.35,0,0,0,3-1,3.72,3.72,0,0,0,1.26-2.68h-2.17A2.12,2.12,0,0,1,101.84,15.22Z"/><rect id="Rectangle_21" data-name="Rectangle 21" class="cls-4" x="38" y="2.04" width="20" height="20"/><g id="Group_55" data-name="Group 55"><path id="Path_9" data-name="Path 9" class="cls-5" d="M42.23,4.72l-1.91,1V8.48L42.23,9.6l-.34,9.71h2.44l-.46-9.84,1.78-1V5.69l-1.78-1V7.44H42.23Z"/><path id="Path_10" data-name="Path 10" class="cls-5" d="M47.13,6.23V8.76H49V7.83h.47v.93H51l-.42,10.6h2.56l-.52-10.6h.86s.15-1.54,1.35-1.54c.56,0,1,.53,1.3,1l.35.19s-.61-2.26-1.75-2.26H49.48V7H49V6.12H47.13Z"/></g><circle id="Ellipse_6" data-name="Ellipse 6" class="cls-4" cx="12" cy="12.04" r="12"/><path id="Path_17" data-name="Path 17" class="cls-5" d="M4.65,11.14,11.87,6.9l5.07,2.87,2.41,1.37v4H4.65Z"/><circle cx="30.55" cy="8.66" r="1.92"/><circle cx="30.55" cy="15.43" r="1.92"/><rect x="62.99" y="8.8" width="7.77" height="2"/><rect x="62.99" y="13.28" width="7.77" height="2"/></svg>