<svg id="Layer_1" data-name="Layer 1" xmlns="http://www.w3.org/2000/svg" xmlns:xlink="http://www.w3.org/1999/xlink" viewBox="0 0 40 40"><defs><style>.cls-1{fill:url(#linear-gradient);}.cls-2{fill:none;}</style><linearGradient id="linear-gradient" x1="87.55" y1="-22.04" x2="87.55" y2="-23.04" gradientTransform="matrix(19, 0, 0, -38, -1643.48, -836.5)" gradientUnits="userSpaceOnUse"><stop offset="0" stop-color="red"/><stop offset="1" stop-color="#0bf"/></linearGradient></defs><g id="Union_1" data-name="Union 1"><path class="cls-1" d="M20,39a9.5,9.5,0,0,1-3.8-18.21l.3-.13V4.5a3.5,3.5,0,0,1,7,0V20.66l.3.13A9.5,9.5,0,0,1,20,39Z"/><path d="M20,38.5a9,9,0,0,0,3.6-17.25L23,21V4.5a3,3,0,0,0-6,0V21l-.6.26A9,9,0,0,0,20,38.5m0,1a10,10,0,0,1-4-19.17V4.5a4,4,0,0,1,8,0V20.33A10,10,0,0,1,20,39.5Z"/></g><rect class="cls-2" width="40" height="40"/></svg>