<svg xmlns="http://www.w3.org/2000/svg" xmlns:xlink="http://www.w3.org/1999/xlink" width="58.436" height="53.344" viewBox="0 0 58.436 53.344">
  <defs>
    <linearGradient id="linear-gradient" x1="0.5" x2="0.5" y2="1" gradientUnits="objectBoundingBox">
      <stop offset="0" stop-color="#ff4c29"/>
      <stop offset="0.515" stop-color="#5b0098"/>
      <stop offset="1" stop-color="#0061e8"/>
    </linearGradient>
  </defs>
  <g id="Group_163" data-name="Group 163" transform="translate(-482.462 -161.328)">
    <path id="Path_80" data-name="Path 80" d="M65.428-147.96l-28.1-28.091a1.116,1.116,0,0,0-1.579,0L7.652-147.96a1.117,1.117,0,0,0,.789,1.907H19.58a1.117,1.117,0,0,1,1.116,1.117v20.785a1.117,1.117,0,0,0,1.117,1.116H51.267a1.116,1.116,0,0,0,1.116-1.116v-20.785a1.118,1.118,0,0,1,1.117-1.117H64.639A1.117,1.117,0,0,0,65.428-147.96Z" transform="translate(475.14 337.706)" fill="url(#linear-gradient)"/>
    <g id="thermostat_black_24dp" transform="translate(500 181)">
      <path id="Path_78" data-name="Path 78" d="M0,0H24V24H0Z" fill="none"/>
      <path id="Path_79" data-name="Path 79" d="M15,13V5A3,3,0,0,0,9,5v8a5,5,0,1,0,6,0Zm-2-2H11V5a1,1,0,0,1,2,0h-.5a.5.5,0,0,0,0,1H13V8h-.5a.5.5,0,0,0,0,1H13Z" fill="#fff"/>
    </g>
  </g>
</svg>
