<svg id="Layer_1" data-name="Layer 1" xmlns="http://www.w3.org/2000/svg" xmlns:xlink="http://www.w3.org/1999/xlink" viewBox="0 0 67.31 24"><defs><style>.cls-1{fill:url(#linear-gradient);}.cls-2{isolation:isolate;}.cls-3{fill:#ea4929;}.cls-4{fill:#c24914;}.cls-5{fill:#ffe600;}</style><linearGradient id="linear-gradient" x1="-11.04" y1="-128.7" x2="-11.04" y2="-129.31" gradientTransform="matrix(19, 0, 0, -38, 270.97, -4890.22)" gradientUnits="userSpaceOnUse"><stop offset="0" stop-color="red"/><stop offset="1" stop-color="#0bf"/></linearGradient></defs><g id="Union_1" data-name="Union 1"><path class="cls-1" d="M61.15,23.69a5.84,5.84,0,0,1-2.33-11.2l.18-.08V2.46a2.16,2.16,0,0,1,4.31,0v10l.18.08a5.84,5.84,0,0,1-2.34,11.2Z"/><path d="M61.15,23.38a5.54,5.54,0,0,0,2.22-10.61L63,12.61V2.46a1.85,1.85,0,0,0-3.69,0V12.61l-.37.16a5.54,5.54,0,0,0,2.21,10.61m0,.62a6.16,6.16,0,0,1-2.46-11.8V2.46a2.47,2.47,0,0,1,4.93,0V12.2A6.16,6.16,0,0,1,61.15,24Z"/></g><g id="_2" data-name=" 2" class="cls-2"><g class="cls-2"><path d="M7.44,9.34A2.65,2.65,0,0,1,7,10.8a3.07,3.07,0,0,1-1.14,1,3.22,3.22,0,0,1,1.31,1.1,2.81,2.81,0,0,1,.48,1.64,3,3,0,0,1-1,2.39,4.16,4.16,0,0,1-2.8.88A4.19,4.19,0,0,1,1,17a3,3,0,0,1-1-2.39,2.86,2.86,0,0,1,.48-1.65,3.19,3.19,0,0,1,1.31-1.09,2.93,2.93,0,0,1-1.14-1A2.65,2.65,0,0,1,.24,9.34,2.93,2.93,0,0,1,1.21,7a3.77,3.77,0,0,1,2.63-.86A3.85,3.85,0,0,1,6.47,7,2.94,2.94,0,0,1,7.44,9.34Zm-2,5.07A1.67,1.67,0,0,0,5,13.22a1.53,1.53,0,0,0-1.16-.45,1.55,1.55,0,0,0-1.15.44,1.69,1.69,0,0,0-.43,1.2,1.61,1.61,0,0,0,.43,1.17A1.52,1.52,0,0,0,3.85,16,1.52,1.52,0,0,0,5,15.59,1.61,1.61,0,0,0,5.42,14.41Zm-.24-5a1.53,1.53,0,0,0-.35-1.07,1.23,1.23,0,0,0-1-.4,1.24,1.24,0,0,0-1,.39A1.53,1.53,0,0,0,2.5,9.45a1.61,1.61,0,0,0,.36,1.09,1.2,1.2,0,0,0,1,.41,1.23,1.23,0,0,0,1-.41A1.65,1.65,0,0,0,5.18,9.45Z"/></g></g><rect id="Rectangle_21" data-name="Rectangle 21" class="cls-3" x="10.86" y="2" width="20" height="20"/><polygon class="cls-4" points="50.4 12 42.4 5.5 42.4 10 35.9 10 35.9 14 42.4 14 42.4 18.5 50.4 12"/><g id="Group_89" data-name="Group 89"><path id="Path_24" data-name="Path 24" class="cls-5" d="M25.76,3.64l-1.91,8,2.33,1.57v7.15l2-8.38-2.42-1.46Z"/><path id="Path_25" data-name="Path 25" class="cls-5" d="M20.6,3.64l-1.91,8L21,13.21v7.15L23,12,20.6,10.52Z"/><path id="Path_26" data-name="Path 26" class="cls-5" d="M15.45,3.64l-1.91,8,2.33,1.57v7.15l2-8.38-2.42-1.46Z"/></g></svg>