<svg id="Layer_1" data-name="Layer 1" xmlns="http://www.w3.org/2000/svg" viewBox="0 0 24 24"><defs><style>.cls-1{fill:#f29102;}.cls-2{fill:none;}</style></defs><path id="Path_18" data-name="Path 18" class="cls-1" d="M15.19,17.5a3.74,3.74,0,0,1-2.6.8,3.15,3.15,0,0,1-2.83-1.37A6.07,6.07,0,0,1,9,14.44h2.72V12.49H8.87v-1h2.82v-2H9a5.73,5.73,0,0,1,.85-2.5A3.18,3.18,0,0,1,12.64,5.7a3.66,3.66,0,0,1,2.57.8,3.8,3.8,0,0,1,1,2.56H20a7,7,0,0,0-2.23-4.74A8.27,8.27,0,0,0,8.64,3.7,6.94,6.94,0,0,0,6,6.77a10,10,0,0,0-.8,2.78H4v2h1v1H4v2H5.18A8.69,8.69,0,0,0,7.07,19a6.86,6.86,0,0,0,5.52,2.37,7.69,7.69,0,0,0,5.17-1.69A6.45,6.45,0,0,0,19.93,15H16.17A3.58,3.58,0,0,1,15.19,17.5Z"/><rect class="cls-2" width="24" height="24"/></svg>