<svg id="Layer_1" data-name="Layer 1" xmlns="http://www.w3.org/2000/svg" viewBox="0 0 75.86 24"><defs><style>.cls-1{fill:#6cb526;}.cls-2{fill:#19592f;}.cls-3{isolation:isolate;}.cls-4{fill:#00662f;}.cls-5{fill:#c24914;}</style></defs><g id="Group_86" data-name="Group 86"><path id="Path_11" data-name="Path 11" class="cls-1" d="M65.41,0,55,6.13V18.06L65.41,24l10.45-5.94V6.13Z"/><path id="Path_12" data-name="Path 12" class="cls-2" d="M61.8,9.67C61.51,9,61,7.94,62,7.1A1.88,1.88,0,0,1,64.43,7c.13-.81.14-2.22,1.64-2.18A3.41,3.41,0,0,1,69,7a5.35,5.35,0,0,1,.38,2.65s1.32.79,1,1.77-2.61,1.61-3.88.93c0,1.45,0,5.49.79,6.84a4,4,0,0,0-2.53.15,34.2,34.2,0,0,0,.44-5.72c-.14-1.07-.92-1.9-1.59-1.27a3.22,3.22,0,0,1-3.22,0A1.71,1.71,0,0,1,60.72,10,1.69,1.69,0,0,1,61.8,9.67Z"/></g><g id="_2" data-name=" 2" class="cls-3"><g class="cls-3"><path d="M7.45,9.34A2.58,2.58,0,0,1,7,10.8a3,3,0,0,1-1.14,1,3.22,3.22,0,0,1,1.31,1.1,2.74,2.74,0,0,1,.49,1.64,3,3,0,0,1-1,2.39,4.19,4.19,0,0,1-2.81.88A4.19,4.19,0,0,1,1,17a3,3,0,0,1-1-2.39,2.86,2.86,0,0,1,.48-1.65,3.26,3.26,0,0,1,1.31-1.09,3,3,0,0,1-1.14-1A2.65,2.65,0,0,1,.24,9.34,2.93,2.93,0,0,1,1.21,7a3.79,3.79,0,0,1,2.63-.86A3.83,3.83,0,0,1,6.47,7,3,3,0,0,1,7.45,9.34Zm-2,5.07A1.63,1.63,0,0,0,5,13.22a1.51,1.51,0,0,0-1.15-.45,1.54,1.54,0,0,0-1.15.44,1.65,1.65,0,0,0-.43,1.2,1.65,1.65,0,0,0,.42,1.17A1.52,1.52,0,0,0,3.85,16,1.52,1.52,0,0,0,5,15.59,1.61,1.61,0,0,0,5.42,14.41Zm-.23-5a1.58,1.58,0,0,0-.35-1.07,1.26,1.26,0,0,0-1-.4,1.24,1.24,0,0,0-1,.39,1.53,1.53,0,0,0-.35,1.08,1.61,1.61,0,0,0,.35,1.09,1.2,1.2,0,0,0,1,.41,1.2,1.2,0,0,0,1-.41A1.66,1.66,0,0,0,5.19,9.45Z"/></g></g><rect id="Rectangle_21" data-name="Rectangle 21" class="cls-1" x="10.86" y="2" width="20" height="20"/><path id="Path_21" data-name="Path 21" class="cls-4" d="M12.13,16.58c.85,0,3.15-.09,3.53-1.41-.47-1.18-1.06-5,1.56-7.1S27,6,29.6,7.24a11,11,0,0,0-2.66,4.39c-.5,1.68-.44,4.48-3.62,5.54a7.18,7.18,0,0,1-6.89-1.06C15.81,17,13.1,18.61,12.13,16.58Z"/><polygon class="cls-5" points="50.4 12 42.4 5.5 42.4 10 35.9 10 35.9 14 42.4 14 42.4 18.5 50.4 12"/></svg>