<svg xmlns="http://www.w3.org/2000/svg" width="56.657" height="50" viewBox="0 0 56.657 50">
  <g id="Group_161" data-name="Group 161" transform="translate(-416.671 -163)">
    <path id="Path_75" data-name="Path 75" d="M115.993-176.875H91.15a3.487,3.487,0,0,0-3.019,1.743L75.71-153.618a3.486,3.486,0,0,0,0,3.486l12.422,21.515a3.486,3.486,0,0,0,3.019,1.742h24.843a3.485,3.485,0,0,0,3.018-1.742l12.422-21.515a3.486,3.486,0,0,0,0-3.486l-12.422-21.514A3.486,3.486,0,0,0,115.993-176.875Z" transform="translate(341.429 339.875)" fill="#90c337"/>
    <g id="park_black_24dp" transform="translate(433 176)">
      <g id="Group_157" data-name="Group 157">
        <rect id="Rectangle_69" data-name="Rectangle 69" width="24" height="24" fill="none"/>
      </g>
      <g id="Group_160" data-name="Group 160">
        <g id="Group_159" data-name="Group 159">
          <g id="Group_158" data-name="Group 158">
            <path id="Path_74" data-name="Path 74" d="M16.96,12h.08a1,1,0,0,0,.82-1.57L12.78,3.18a1,1,0,0,0-1.64,0L6.1,10.43A1,1,0,0,0,6.93,12h.04l-2.9,4.46A.994.994,0,0,0,4.91,18H9.99v2.02A1.985,1.985,0,0,0,11.97,22h0a1.985,1.985,0,0,0,1.98-1.98V18H19.1a.994.994,0,0,0,.83-1.55Z" fill="#416600"/>
          </g>
        </g>
      </g>
    </g>
  </g>
</svg>
