<svg xmlns="http://www.w3.org/2000/svg" width="56.657" height="50" viewBox="0 0 56.657 50">
  <g id="Group_162" data-name="Group 162" transform="translate(-551 -163)">
    <path id="Path_76" data-name="Path 76" d="M115.993-176.875H91.15a3.487,3.487,0,0,0-3.019,1.743L75.71-153.618a3.486,3.486,0,0,0,0,3.486l12.422,21.515a3.486,3.486,0,0,0,3.019,1.742h24.843a3.485,3.485,0,0,0,3.018-1.742l12.422-21.515a3.486,3.486,0,0,0,0-3.486l-12.422-21.514A3.486,3.486,0,0,0,115.993-176.875Z" transform="translate(475.757 339.875)" fill="#5ca0ff"/>
    <g id="water_drop_black_24dp" transform="translate(567 176)">
      <rect id="Rectangle_70" data-name="Rectangle 70" width="24" height="24" fill="none"/>
      <path id="Path_77" data-name="Path 77" d="M12.66,2.58a1.017,1.017,0,0,0-1.33,0Q4.01,9.03,4,13.8a8,8,0,1,0,16,0Q20,9.03,12.66,2.58ZM7.83,14a.751.751,0,0,1,.74.62,3.388,3.388,0,0,0,3.64,2.87.751.751,0,1,1,.07,1.5,4.873,4.873,0,0,1-5.19-4.12A.75.75,0,0,1,7.83,14Z" fill="#2c394b"/>
    </g>
  </g>
</svg>
