<svg id="Layer_1" data-name="Layer 1" xmlns="http://www.w3.org/2000/svg" viewBox="0 0 24 24"><defs><style>.cls-1{fill:#fff;}.cls-2{fill:none;}</style></defs><path class="cls-1" d="M20.21,7.63l1.63-6.07L15.77,3.19l1.16,1.16L15.26,6a8.68,8.68,0,0,0-4.32-1.14,8.78,8.78,0,1,0,6.65,3.05l1.46-1.46ZM17,10.14H14.43A13.55,13.55,0,0,0,13.22,7,7.07,7.07,0,0,1,17,10.14ZM10.94,6.67a12.39,12.39,0,0,1,1.68,3.47H9.27A12.65,12.65,0,0,1,10.94,6.67ZM4.15,15.41a6.81,6.81,0,0,1,0-3.51h3A14.58,14.58,0,0,0,7,13.66a14.56,14.56,0,0,0,.13,1.75Zm.72,1.76H7.46a13.38,13.38,0,0,0,1.21,3.12A7,7,0,0,1,4.87,17.17Zm2.59-7H4.87A7,7,0,0,1,8.67,7,13.55,13.55,0,0,0,7.46,10.14Zm3.48,10.51a12.85,12.85,0,0,1-1.67-3.48h3.35A12.59,12.59,0,0,1,10.94,20.65ZM13,15.41H8.89a12.77,12.77,0,0,1-.14-1.75,12.67,12.67,0,0,1,.14-1.76H13a12.67,12.67,0,0,1,.14,1.76A12.77,12.77,0,0,1,13,15.41Zm.22,4.88a13.38,13.38,0,0,0,1.21-3.12H17A7,7,0,0,1,13.22,20.29ZM18,13.66a7.24,7.24,0,0,1-.23,1.75h-3a14.56,14.56,0,0,0,.13-1.75,14.58,14.58,0,0,0-.13-1.76h3A7.25,7.25,0,0,1,18,13.66Z"/><rect class="cls-2" width="24" height="24"/></svg>